<svg id="Layer_1" data-name="Layer 1" xmlns="http://www.w3.org/2000/svg" viewBox="0 0 113.65 25.23"><defs><style>.cls-1{fill:#fff;}</style></defs><title>databusiness-logo</title><path class="cls-1" d="M4.15,13.57a7,7,0,0,0,2.46-.39,4.4,4.4,0,0,0,1.7-1.1,4.52,4.52,0,0,0,1-1.69,6.83,6.83,0,0,0,.32-2.16,6.85,6.85,0,0,0-.32-2.16,4.54,4.54,0,0,0-1-1.69,4.42,4.42,0,0,0-1.7-1.1A7,7,0,0,0,4.15,2.9H2.44V13.57ZM.13.83H4.28a9.08,9.08,0,0,1,3.23.54A7,7,0,0,1,9.95,2.9a6.53,6.53,0,0,1,1.53,2.34,8.2,8.2,0,0,1,.53,3,8.2,8.2,0,0,1-.53,3,6.53,6.53,0,0,1-1.53,2.34,7,7,0,0,1-2.43,1.53,9,9,0,0,1-3.24.54H.13Z"/><path class="cls-1" d="M16.92,13.92a1.57,1.57,0,0,0,1.27-.54,2.21,2.21,0,0,0,.45-1.46,2.21,2.21,0,0,0-.45-1.46,1.57,1.57,0,0,0-1.27-.55,1.63,1.63,0,0,0-1.3.55,2.14,2.14,0,0,0-.48,1.46,2.14,2.14,0,0,0,.48,1.46,1.63,1.63,0,0,0,1.3.54m-.56,1.92A3.11,3.11,0,0,1,15,15.54a3.33,3.33,0,0,1-1.09-.82,3.91,3.91,0,0,1-.73-1.24,4.69,4.69,0,0,1,0-3.14,3.91,3.91,0,0,1,.73-1.24A3.33,3.33,0,0,1,15,8.29,3.11,3.11,0,0,1,16.35,8a3.15,3.15,0,0,1,1.39.27A2,2,0,0,1,18.6,9V8.19h2.16v7.45H18.6v-.85a2,2,0,0,1-.85.77,3.15,3.15,0,0,1-1.39.27"/><path class="cls-1" d="M22.08,10V8.19h.86V3.33H25.1V8.19h1.73V10H25.1v3a1.21,1.21,0,0,0,.16.75.58.58,0,0,0,.46.18.83.83,0,0,0,.36-.08,1.31,1.31,0,0,0,.29-.18l.84,1.52a2.72,2.72,0,0,1-.72.42,3,3,0,0,1-1.13.18,2.51,2.51,0,0,1-1.74-.61,2.8,2.8,0,0,1-.68-2.16V10Z"/><path class="cls-1" d="M31.91,13.92a1.57,1.57,0,0,0,1.27-.54,2.21,2.21,0,0,0,.45-1.46,2.21,2.21,0,0,0-.45-1.46,1.57,1.57,0,0,0-1.27-.55,1.63,1.63,0,0,0-1.3.55,2.14,2.14,0,0,0-.48,1.46,2.14,2.14,0,0,0,.48,1.46,1.63,1.63,0,0,0,1.3.54m-.56,1.92A3.11,3.11,0,0,1,30,15.54a3.33,3.33,0,0,1-1.09-.82,3.9,3.9,0,0,1-.73-1.24,4.69,4.69,0,0,1,0-3.14,3.9,3.9,0,0,1,.73-1.24A3.33,3.33,0,0,1,30,8.29,3.11,3.11,0,0,1,31.35,8a3.15,3.15,0,0,1,1.39.27,2,2,0,0,1,.85.77V8.19h2.16v7.45H33.59v-.85a2,2,0,0,1-.85.77,3.15,3.15,0,0,1-1.39.27"/><path class="cls-1" d="M43.74,13.63A3.78,3.78,0,0,0,45,13.45a2.13,2.13,0,0,0,.84-.52,2,2,0,0,0,.46-.81,3.6,3.6,0,0,0,.14-1,2.63,2.63,0,0,0-.66-1.86,2.84,2.84,0,0,0-2.16-.71H40.57v5.12Zm-.39-7A2.16,2.16,0,0,0,45,6.12a2.1,2.1,0,0,0,.46-1.44A1.91,1.91,0,0,0,45,3.33a2.22,2.22,0,0,0-1.67-.5H40.57V6.64ZM38.26.83h5.22a5.63,5.63,0,0,1,1.92.29,3.74,3.74,0,0,1,1.34.81,3.22,3.22,0,0,1,.79,1.21,4.21,4.21,0,0,1,.26,1.48,2.93,2.93,0,0,1-.48,1.69A3.35,3.35,0,0,1,46,7.43a3.86,3.86,0,0,1,2,1.34,3.8,3.8,0,0,1,.75,2.41,5,5,0,0,1-.3,1.75,3.84,3.84,0,0,1-.91,1.42,4.26,4.26,0,0,1-1.53.95,6.28,6.28,0,0,1-2.2.35h-5.6Z"/><path class="cls-1" d="M53.77,15.83a3.41,3.41,0,0,1-2.6-.93,3.64,3.64,0,0,1-.87-2.6V8.19h2.16v4a2.07,2.07,0,0,0,.32,1.27,1.59,1.59,0,0,0,2.16,0,2.07,2.07,0,0,0,.32-1.27v-4h2.16v4.12a3.45,3.45,0,0,1-1,2.6,3.72,3.72,0,0,1-2.69.93"/><path class="cls-1" d="M61.77,15.83A4.52,4.52,0,0,1,60,15.46a4.39,4.39,0,0,1-1.53-1.11l1.36-1.22a2.4,2.4,0,0,0,1.92.94,1.67,1.67,0,0,0,.83-.15.45.45,0,0,0,.25-.39.46.46,0,0,0-.26-.41,4.83,4.83,0,0,0-1.17-.35,3.82,3.82,0,0,1-1.8-.81,2,2,0,0,1-.64-1.61,2.16,2.16,0,0,1,.73-1.7,2.88,2.88,0,0,1,2-.65,4,4,0,0,1,1.52.26,4.15,4.15,0,0,1,1.2.76l-1.14,1.33a2.05,2.05,0,0,0-.67-.45,2.15,2.15,0,0,0-.84-.16,1.07,1.07,0,0,0-.64.15.45.45,0,0,0-.2.37.45.45,0,0,0,.29.43,5.9,5.9,0,0,0,1.22.31,3.49,3.49,0,0,1,1.86.85,2.08,2.08,0,0,1,.6,1.52,2.24,2.24,0,0,1-.78,1.8,3.48,3.48,0,0,1-2.31.66"/><path class="cls-1" d="M66.2,8.19h2.16v7.45H66.2Zm1.08-2a1.33,1.33,0,0,1-1-.39,1.3,1.3,0,0,1-.41-1,1.3,1.3,0,0,1,.41-1,1.36,1.36,0,0,1,2.31,1,1.35,1.35,0,0,1-1.36,1.37"/><path class="cls-1" d="M70.13,8.19h2.16v1a2.19,2.19,0,0,1,1-.88A3.19,3.19,0,0,1,74.6,8a2.65,2.65,0,0,1,2,.82,3.23,3.23,0,0,1,.78,2.32v4.51H75.23V11.28a1.38,1.38,0,0,0-.32-1,1.3,1.3,0,0,0-1-.35,1.62,1.62,0,0,0-1.2.42,1.71,1.71,0,0,0-.42,1.25v4H70.13Z"/><path class="cls-1" d="M84.3,11.13a1.64,1.64,0,0,0-.52-.94,1.58,1.58,0,0,0-1.1-.37,1.78,1.78,0,0,0-1.11.34,1.75,1.75,0,0,0-.62,1Zm-2.73,2.52a2,2,0,0,0,1.28.36A2.6,2.6,0,0,0,84,13.78a3.73,3.73,0,0,0,.76-.49l1.3,1.31a3.84,3.84,0,0,1-1.25.89,4.6,4.6,0,0,1-1.92.35,4.92,4.92,0,0,1-1.75-.29,3.9,3.9,0,0,1-1.33-.82A3.5,3.5,0,0,1,79,13.48a4.13,4.13,0,0,1-.29-1.57A3.9,3.9,0,0,1,79.84,9.1a3.75,3.75,0,0,1,1.26-.82A4.21,4.21,0,0,1,82.68,8a4,4,0,0,1,1.73.36,3.46,3.46,0,0,1,1.25,1,4.22,4.22,0,0,1,.73,1.48,5.41,5.41,0,0,1,.17,1.83H80.93a1.81,1.81,0,0,0,.64,1"/><path class="cls-1" d="M90.65,15.83a4.51,4.51,0,0,1-1.79-.37,4.37,4.37,0,0,1-1.53-1.11l1.36-1.22a2.4,2.4,0,0,0,1.92.94,1.67,1.67,0,0,0,.83-.15.45.45,0,0,0,.25-.39.46.46,0,0,0-.26-.41,4.8,4.8,0,0,0-1.17-.35,3.82,3.82,0,0,1-1.8-.81,2,2,0,0,1-.64-1.61,2.17,2.17,0,0,1,.74-1.7,2.88,2.88,0,0,1,2-.65,4,4,0,0,1,1.52.26,4.15,4.15,0,0,1,1.2.76l-1.14,1.33a2,2,0,0,0-.67-.45,2.15,2.15,0,0,0-.84-.16,1.07,1.07,0,0,0-.64.15.45.45,0,0,0,.09.8,5.86,5.86,0,0,0,1.22.31,3.49,3.49,0,0,1,1.86.85,2.08,2.08,0,0,1,.61,1.52,2.24,2.24,0,0,1-.78,1.8,3.48,3.48,0,0,1-2.31.66"/><path class="cls-1" d="M97.72,15.83a4.52,4.52,0,0,1-1.79-.37,4.39,4.39,0,0,1-1.53-1.11l1.36-1.22a2.4,2.4,0,0,0,1.92.94,1.67,1.67,0,0,0,.83-.15.45.45,0,0,0,.25-.39.46.46,0,0,0-.26-.41,4.83,4.83,0,0,0-1.17-.35A3.83,3.83,0,0,1,95.52,12a2,2,0,0,1-.64-1.61,2.17,2.17,0,0,1,.73-1.7,2.89,2.89,0,0,1,2-.65,4,4,0,0,1,1.52.26,4.15,4.15,0,0,1,1.2.76l-1.14,1.33a2.05,2.05,0,0,0-.67-.45,2.15,2.15,0,0,0-.84-.16,1.07,1.07,0,0,0-.64.15.45.45,0,0,0-.2.37.45.45,0,0,0,.29.43,5.9,5.9,0,0,0,1.22.31,3.49,3.49,0,0,1,1.86.85,2.08,2.08,0,0,1,.6,1.52,2.24,2.24,0,0,1-.78,1.8,3.48,3.48,0,0,1-2.31.66"/><path class="cls-1" d="M103.53,15.77a1.5,1.5,0,0,1-1.06-.42,1.56,1.56,0,0,1,0-2.2,1.53,1.53,0,0,1,2.12,0,1.56,1.56,0,0,1,0,2.2,1.5,1.5,0,0,1-1.06.42"/><path class="cls-1" d="M112.13,6.14a1.34,1.34,0,0,1-1-.39,1.3,1.3,0,0,1-.41-1,1.3,1.3,0,0,1,.41-1,1.34,1.34,0,0,1,1-.39,1.35,1.35,0,0,1,1.36,1.37,1.35,1.35,0,0,1-1.36,1.37m-3.31,9.5h-2.16V10h-.86V8.19h.86V2.79A2.94,2.94,0,0,1,107.32.7a2.39,2.39,0,0,1,1.83-.7,3,3,0,0,1,1.26.23,2.53,2.53,0,0,1,.83.62L110,2.22a.76.76,0,0,0-.67-.3.51.51,0,0,0-.38.17,1,1,0,0,0-.16.68V8.19h4.39v7.45H111V10h-2.23Z"/><polygon class="cls-1" points="0 25.15 0 21.7 0.67 21.7 0.67 23.06 1.2 23.06 1.2 21.7 1.86 21.7 1.86 25.15 1.2 25.15 1.2 23.61 0.67 23.61 0.67 25.15 0 25.15"/><polygon class="cls-1" points="2.8 25.15 2.8 21.7 4.24 21.7 4.24 22.26 3.47 22.26 3.47 23.09 4.24 23.09 4.24 23.65 3.47 23.65 3.47 24.58 4.24 24.58 4.24 25.15 2.8 25.15"/><polygon class="cls-1" points="5.13 25.15 5.13 21.7 5.79 21.7 5.79 24.58 6.57 24.58 6.57 25.15 5.13 25.15"/><path class="cls-1" d="M7.25,24.36l.62-.15c.05.29.17.44.37.44a.28.28,0,0,0,.21-.09.34.34,0,0,0,.09-.24.44.44,0,0,0-.08-.25,1.52,1.52,0,0,0-.28-.29l-.33-.28a2.18,2.18,0,0,1-.33-.36,1,1,0,0,1-.18-.58.88.88,0,0,1,.94-.94.88.88,0,0,1,.6.2,1.1,1.1,0,0,1,.32.61l-.57.2q-.05-.45-.33-.45a.27.27,0,0,0-.21.09.32.32,0,0,0-.08.22.43.43,0,0,0,.08.25,1.58,1.58,0,0,0,.29.29l.32.27a1.74,1.74,0,0,1,.4.45A1.07,1.07,0,0,1,8.92,25a1,1,0,0,1-.72.27A.92.92,0,0,1,7.56,25a1.07,1.07,0,0,1-.31-.65"/><rect class="cls-1" x="10" y="21.69" width="0.67" height="3.45"/><polygon class="cls-1" points="11.61 25.15 11.61 21.7 12.31 21.7 12.91 23.8 12.91 21.7 13.52 21.7 13.52 25.15 12.84 25.15 12.23 23.18 12.23 25.15 11.61 25.15"/><polygon class="cls-1" points="14.46 25.15 14.46 21.7 15.13 21.7 15.13 23.17 15.78 21.7 16.48 21.7 15.78 23.26 16.5 25.15 15.74 25.15 15.13 23.36 15.13 25.15 14.46 25.15"/><rect class="cls-1" x="17.25" y="21.69" width="0.67" height="3.45"/><path class="cls-1" d="M20.41,24.84a.35.35,0,0,1,.35-.35.34.34,0,0,1,.35.35.34.34,0,0,1-.1.25.34.34,0,0,1-.25.1.33.33,0,0,1-.24-.1.34.34,0,0,1-.1-.25"/><polygon class="cls-1" points="23.6 25.15 23.6 21.7 25.04 21.7 25.04 22.26 24.27 22.26 24.27 23.09 25.04 23.09 25.04 23.65 24.27 23.65 24.27 24.58 25.04 24.58 25.04 25.15 23.6 25.15"/><path class="cls-1" d="M25.72,24.36l.62-.15c.05.29.17.44.37.44a.28.28,0,0,0,.21-.09.34.34,0,0,0,.09-.24.44.44,0,0,0-.08-.25,1.52,1.52,0,0,0-.28-.29l-.33-.28a2.18,2.18,0,0,1-.33-.36,1,1,0,0,1-.18-.58.88.88,0,0,1,.94-.94.88.88,0,0,1,.6.2,1.1,1.1,0,0,1,.32.61l-.57.2q-.05-.45-.33-.45a.27.27,0,0,0-.21.09.32.32,0,0,0-.08.22.43.43,0,0,0,.08.25,1.58,1.58,0,0,0,.29.29l.32.27a1.74,1.74,0,0,1,.4.45A1.07,1.07,0,0,1,27.4,25a1,1,0,0,1-.72.27A.92.92,0,0,1,26,25a1.07,1.07,0,0,1-.31-.65"/><path class="cls-1" d="M29.15,23.48a.38.38,0,0,0,.34-.14.86.86,0,0,0,.1-.47.85.85,0,0,0-.1-.48.38.38,0,0,0-.33-.14h0Zm-.67,1.66V21.7h.74A1,1,0,0,1,30,22a1.28,1.28,0,0,1,.26.88,1.26,1.26,0,0,1-.27.87,1,1,0,0,1-.78.3h-.07v1.12Z"/><path class="cls-1" d="M31.63,23.42a6.39,6.39,0,0,0,0,.74.9.9,0,0,0,.11.37.24.24,0,0,0,.21.11.23.23,0,0,0,.21-.11,1,1,0,0,0,.1-.37,6.16,6.16,0,0,0,0-.73,6.84,6.84,0,0,0,0-.76.92.92,0,0,0-.1-.37.25.25,0,0,0-.42,0,.92.92,0,0,0-.11.37,6.39,6.39,0,0,0,0,.74m-.68,0a4.41,4.41,0,0,1,.07-.91,1.53,1.53,0,0,1,.25-.58.92.92,0,0,1,1.4,0,1.57,1.57,0,0,1,.25.59,4.66,4.66,0,0,1,.07.94,4.2,4.2,0,0,1-.08.88,1.54,1.54,0,0,1-.25.58.72.72,0,0,1-.29.24.94.94,0,0,1-.4.08,1,1,0,0,1-.41-.08.71.71,0,0,1-.3-.24,1.53,1.53,0,0,1-.25-.58,4.44,4.44,0,0,1-.07-.91"/><path class="cls-1" d="M34.42,23.42a6.39,6.39,0,0,0,0,.74.9.9,0,0,0,.11.37.24.24,0,0,0,.21.11.23.23,0,0,0,.21-.11,1,1,0,0,0,.1-.37,6.16,6.16,0,0,0,0-.73,6.84,6.84,0,0,0,0-.76.92.92,0,0,0-.1-.37.24.24,0,0,0-.21-.11.23.23,0,0,0-.21.11.91.91,0,0,0-.11.37,6.39,6.39,0,0,0,0,.74m-.68,0a4.41,4.41,0,0,1,.07-.91,1.53,1.53,0,0,1,.25-.58.92.92,0,0,1,1.4,0,1.57,1.57,0,0,1,.25.59,4.66,4.66,0,0,1,.07.94,4.2,4.2,0,0,1-.08.88,1.54,1.54,0,0,1-.25.58.72.72,0,0,1-.29.24.94.94,0,0,1-.4.08,1,1,0,0,1-.41-.08.71.71,0,0,1-.3-.24,1.53,1.53,0,0,1-.25-.58,4.44,4.44,0,0,1-.07-.91"/><path class="cls-1" d="M38.19,24.84a.35.35,0,0,1,.35-.35.34.34,0,0,1,.35.35.34.34,0,0,1-.1.25.34.34,0,0,1-.25.1.33.33,0,0,1-.24-.1.34.34,0,0,1-.1-.25"/><polygon class="cls-1" points="41.19 21.7 41.91 21.7 42.17 24.06 42.52 21.7 43.17 21.7 42.52 25.15 41.83 25.15 41.19 21.7"/><path class="cls-1" d="M44.59,24.06h.51l-.24-1.57Zm-.87,1.09.77-3.46h.74L46,25.15h-.7l-.09-.53h-.7l-.1.53Z"/><polygon class="cls-1" points="46.72 25.15 46.72 21.7 47.41 21.7 48.01 23.8 48.01 21.7 48.63 21.7 48.63 25.15 47.94 25.15 47.33 23.18 47.33 25.15 46.72 25.15"/><polygon class="cls-1" points="49.4 22.26 49.4 21.7 51.13 21.7 51.13 22.26 50.59 22.26 50.59 25.15 49.92 25.15 49.92 22.26 49.4 22.26"/><path class="cls-1" d="M52.55,24.06h.51l-.24-1.57Zm-.87,1.09.77-3.46h.74l.75,3.46h-.7l-.09-.53h-.7l-.1.53Z"/><path class="cls-1" d="M55.34,24.06h.51l-.24-1.57Zm-.87,1.09.77-3.46H56l.75,3.46H56l-.09-.53h-.7l-.1.53Z"/><path class="cls-1" d="M59,24.84a.35.35,0,0,1,.35-.35.34.34,0,0,1,.35.35.34.34,0,0,1-.1.25.34.34,0,0,1-.25.1.33.33,0,0,1-.24-.1.34.34,0,0,1-.1-.25"/><polygon class="cls-1" points="62.05 22.26 62.05 21.7 63.78 21.7 63.78 22.26 63.25 22.26 63.25 25.15 62.58 25.15 62.58 22.26 62.05 22.26"/><path class="cls-1" d="M65.2,24.06h.51l-.24-1.57Zm-.87,1.09.77-3.46h.74l.75,3.46h-.7l-.09-.53h-.7l-.1.53Z"/><polygon class="cls-1" points="67.33 25.15 67.33 21.7 68.08 21.7 68.63 23.88 69.19 21.7 69.92 21.7 69.92 25.15 69.3 25.15 69.3 23.04 68.89 24.73 68.36 24.73 67.95 23.04 67.95 25.15 67.33 25.15"/><path class="cls-1" d="M71.52,23.48a.38.38,0,0,0,.34-.14.86.86,0,0,0,.1-.47.84.84,0,0,0-.1-.48.38.38,0,0,0-.33-.14h0Zm-.67,1.66V21.7h.74a1,1,0,0,1,.79.29,1.28,1.28,0,0,1,.26.88,1.26,1.26,0,0,1-.27.87,1,1,0,0,1-.78.3h-.07v1.12Z"/><polygon class="cls-1" points="73.43 25.15 73.43 21.7 74.87 21.7 74.87 22.26 74.09 22.26 74.09 23.09 74.87 23.09 74.87 23.65 74.09 23.65 74.09 24.58 74.87 24.58 74.87 25.15 73.43 25.15"/><path class="cls-1" d="M76.42,23.18h.11a.41.41,0,0,0,.46-.47.4.4,0,0,0-.46-.46h-.11Zm-.67,2V21.7h.83a1.2,1.2,0,0,1,.83.25,1,1,0,0,1,.27.75,1,1,0,0,1-.15.56.72.72,0,0,1-.41.31l.64,1.58H77l-.6-1.58v1.58Z"/><polygon class="cls-1" points="78.56 25.15 78.56 21.7 80 21.7 80 22.26 79.22 22.26 79.22 23.09 80 23.09 80 23.65 79.22 23.65 79.22 24.58 80 24.58 80 25.15 78.56 25.15"/><path class="cls-1" d="M82.44,24.84a.35.35,0,0,1,.35-.35.34.34,0,0,1,.35.35.34.34,0,0,1-.1.25.34.34,0,0,1-.25.1.33.33,0,0,1-.24-.1.34.34,0,0,1-.1-.25"/><polygon class="cls-1" points="85.46 22.26 85.46 21.7 87.19 21.7 87.19 22.26 86.66 22.26 86.66 25.15 85.99 25.15 85.99 22.26 85.46 22.26"/><path class="cls-1" d="M87.94,24.18V21.7h.67v2.49a.83.83,0,0,0,0,.31.28.28,0,0,0,.24.14.26.26,0,0,0,.13,0,.26.26,0,0,0,.1-.1.81.81,0,0,0,0-.31V21.7h.67v2.49a1.61,1.61,0,0,1-.05.45.78.78,0,0,1-.18.31.89.89,0,0,1-.7.29.91.91,0,0,1-.72-.29.77.77,0,0,1-.18-.31,1.58,1.58,0,0,1-.05-.45"/><path class="cls-1" d="M91.41,23.18h.11a.41.41,0,0,0,.46-.47.4.4,0,0,0-.46-.46h-.11Zm-.67,2V21.7h.83a1.2,1.2,0,0,1,.83.25,1,1,0,0,1,.27.75,1,1,0,0,1-.15.56.72.72,0,0,1-.41.31l.64,1.58H92l-.6-1.58v1.58Z"/><polygon class="cls-1" points="93.55 25.15 93.55 21.7 94.22 21.7 94.22 23.17 94.87 21.7 95.57 21.7 94.87 23.26 95.58 25.15 94.83 25.15 94.22 23.36 94.22 25.15 93.55 25.15"/><path class="cls-1" d="M96.32,24.18V21.7H97v2.49a.83.83,0,0,0,0,.31.28.28,0,0,0,.24.14.26.26,0,0,0,.13,0,.26.26,0,0,0,.1-.1.81.81,0,0,0,0-.31V21.7h.67v2.49a1.66,1.66,0,0,1-.05.45.79.79,0,0,1-.18.31.89.89,0,0,1-.7.29.91.91,0,0,1-.72-.29.77.77,0,0,1-.18-.31,1.58,1.58,0,0,1-.05-.45"/><path class="cls-1" d="M100.68,24.84a.35.35,0,0,1,.35-.35.34.34,0,0,1,.35.35.34.34,0,0,1-.1.25.34.34,0,0,1-.25.1.33.33,0,0,1-.24-.1.34.34,0,0,1-.1-.25"/><path class="cls-1" d="M104.45,23.42a6.35,6.35,0,0,0,0,.74.9.9,0,0,0,.11.37.24.24,0,0,0,.21.11.23.23,0,0,0,.21-.11,1,1,0,0,0,.1-.37,6.16,6.16,0,0,0,0-.73,6.84,6.84,0,0,0,0-.76.94.94,0,0,0-.1-.37.24.24,0,0,0-.21-.11.23.23,0,0,0-.21.11.91.91,0,0,0-.11.37,6.35,6.35,0,0,0,0,.74m-.68,0a4.41,4.41,0,0,1,.07-.91,1.51,1.51,0,0,1,.25-.58.92.92,0,0,1,1.4,0,1.56,1.56,0,0,1,.26.59,4.66,4.66,0,0,1,.07.94,4.12,4.12,0,0,1-.08.88,1.54,1.54,0,0,1-.25.58.71.71,0,0,1-.29.24.94.94,0,0,1-.4.08,1,1,0,0,1-.41-.08.71.71,0,0,1-.3-.24,1.53,1.53,0,0,1-.25-.58,4.44,4.44,0,0,1-.07-.91"/><path class="cls-1" d="M106.65,24.18V21.7h.67v2.49a.81.81,0,0,0,0,.31.28.28,0,0,0,.24.14.26.26,0,0,0,.13,0,.25.25,0,0,0,.1-.1.81.81,0,0,0,0-.31V21.7h.67v2.49a1.61,1.61,0,0,1-.05.45.79.79,0,0,1-.18.31.89.89,0,0,1-.7.29.91.91,0,0,1-.72-.29.79.79,0,0,1-.18-.31,1.62,1.62,0,0,1-.05-.45"/><polygon class="cls-1" points="109.46 25.15 109.46 21.7 110.12 21.7 110.12 24.58 110.9 24.58 110.9 25.15 109.46 25.15"/><path class="cls-1" d="M111.77,24.18V21.7h.67v2.49a.83.83,0,0,0,0,.31.28.28,0,0,0,.24.14.26.26,0,0,0,.14,0,.26.26,0,0,0,.1-.1.83.83,0,0,0,0-.31V21.7h.67v2.49a1.62,1.62,0,0,1-.05.45.78.78,0,0,1-.18.31.89.89,0,0,1-.7.29.91.91,0,0,1-.72-.29.76.76,0,0,1-.18-.31,1.58,1.58,0,0,1-.05-.45"/></svg>