<?xml version="1.0" encoding="utf-8"?>
<!-- Generator: Adobe Illustrator 20.1.0, SVG Export Plug-In . SVG Version: 6.00 Build 0)  -->
<svg version="1.1" id="Layer_1" xmlns="http://www.w3.org/2000/svg" xmlns:xlink="http://www.w3.org/1999/xlink" x="0px" y="0px"
	 viewBox="0 0 113.7 25.2" style="enable-background:new 0 0 113.7 25.2;" xml:space="preserve">
<style type="text/css">
	.st0{fill:#66256D;}
</style>
<title>databusiness-logo</title>
<path class="st0" d="M4.2,13.6c0.8,0,1.7-0.1,2.5-0.4c0.6-0.2,1.2-0.6,1.7-1.1c0.5-0.5,0.8-1.1,1-1.7C9.5,9.7,9.6,9,9.6,8.2
	c0-0.7-0.1-1.5-0.3-2.2c-0.2-0.6-0.5-1.2-1-1.7C7.8,3.9,7.3,3.5,6.6,3.3C5.8,3,5,2.9,4.2,2.9H2.4v10.7H4.2z M0.1,0.8h4.2
	c1.1,0,2.2,0.2,3.2,0.5c0.9,0.3,1.7,0.9,2.4,1.5c0.7,0.7,1.2,1.5,1.5,2.3c0.4,1,0.5,2,0.5,3c0,1-0.2,2-0.5,3
	c-0.3,0.9-0.9,1.7-1.5,2.3c-0.7,0.7-1.5,1.2-2.4,1.5c-1,0.4-2.1,0.6-3.2,0.5H0.1V0.8z"/>
<path class="st0" d="M16.9,13.9c0.5,0,1-0.2,1.3-0.5c0.3-0.4,0.5-0.9,0.5-1.5c0-0.5-0.1-1-0.5-1.5c-0.3-0.4-0.8-0.6-1.3-0.6
	c-0.5,0-1,0.2-1.3,0.6c-0.3,0.4-0.5,0.9-0.5,1.5c0,0.5,0.1,1,0.5,1.5C15.9,13.7,16.4,13.9,16.9,13.9 M16.4,15.8
	c-0.5,0-0.9-0.1-1.4-0.3c-0.4-0.2-0.8-0.5-1.1-0.8c-0.3-0.4-0.6-0.8-0.7-1.2c-0.4-1-0.4-2.1,0-3.1c0.2-0.5,0.4-0.9,0.7-1.2
	c0.3-0.3,0.7-0.6,1.1-0.8C15.4,8.1,15.9,8,16.4,8c0.5,0,1,0.1,1.4,0.3c0.4,0.2,0.6,0.4,0.9,0.7V8.2h2.2v7.4h-2.2v-0.9
	c-0.2,0.3-0.5,0.6-0.9,0.8C17.3,15.8,16.8,15.8,16.4,15.8"/>
<path class="st0" d="M22.1,10V8.2h0.9V3.3h2.2v4.9h1.7V10h-1.7v3c0,0.3,0,0.5,0.2,0.8c0.1,0.1,0.3,0.2,0.5,0.2c0.1,0,0.2,0,0.4-0.1
	c0.1,0,0.2-0.1,0.3-0.2l0.8,1.5c-0.2,0.2-0.5,0.3-0.7,0.4c-0.4,0.1-0.7,0.2-1.1,0.2c-0.6,0-1.3-0.2-1.7-0.6
	c-0.5-0.6-0.8-1.4-0.7-2.2v-3H22.1z"/>
<path class="st0" d="M31.9,13.9c0.5,0,1-0.2,1.3-0.5c0.3-0.4,0.5-0.9,0.5-1.5c0-0.5-0.1-1-0.5-1.5c-0.3-0.4-0.8-0.6-1.3-0.6
	c-0.5,0-1,0.2-1.3,0.6c-0.3,0.4-0.5,0.9-0.5,1.5c0,0.5,0.1,1,0.5,1.5C30.9,13.7,31.4,13.9,31.9,13.9 M31.4,15.8
	c-0.5,0-0.9-0.1-1.4-0.3c-0.4-0.2-0.8-0.5-1.1-0.8c-0.3-0.4-0.6-0.8-0.7-1.2c-0.4-1-0.4-2.1,0-3.1c0.2-0.5,0.4-0.9,0.7-1.2
	c0.3-0.3,0.7-0.6,1.1-0.8C30.4,8.1,30.9,8,31.4,8c0.5,0,1,0.1,1.4,0.3c0.4,0.2,0.6,0.4,0.8,0.8V8.2h2.2v7.4h-2.2v-0.9
	c-0.2,0.3-0.5,0.6-0.8,0.8C32.3,15.8,31.8,15.8,31.4,15.8"/>
<path class="st0" d="M43.7,13.6c0.4,0,0.9,0,1.3-0.2c0.3-0.1,0.6-0.3,0.8-0.5c0.2-0.2,0.4-0.5,0.5-0.8c0.1-0.3,0.1-0.7,0.1-1
	c0-0.7-0.2-1.3-0.7-1.9c-0.6-0.5-1.4-0.8-2.2-0.7h-3v5.1L43.7,13.6z M43.4,6.6c0.6,0.1,1.2-0.1,1.6-0.5c0.3-0.4,0.5-0.9,0.5-1.4
	c0-0.5-0.1-1-0.5-1.3c-0.5-0.4-1.1-0.6-1.7-0.5h-2.8v3.8L43.4,6.6z M38.3,0.8h5.2c0.7,0,1.3,0.1,1.9,0.3c0.5,0.2,1,0.4,1.3,0.8
	c0.4,0.3,0.6,0.8,0.8,1.2c0.2,0.5,0.3,1,0.3,1.5c0,0.6-0.2,1.2-0.5,1.7C47,6.8,46.5,7.2,46,7.4c0.8,0.2,1.5,0.7,2,1.3
	c0.5,0.7,0.8,1.5,0.8,2.4c0,0.6-0.1,1.2-0.3,1.8c-0.2,0.5-0.5,1-0.9,1.4c-0.4,0.4-1,0.7-1.5,0.9c-0.7,0.2-1.5,0.4-2.2,0.4h-5.6
	L38.3,0.8z"/>
<path class="st0" d="M53.8,15.8c-1,0.1-1.9-0.3-2.6-0.9c-0.6-0.7-0.9-1.7-0.9-2.6V8.2h2.2v4c0,0.4,0.1,0.9,0.3,1.3
	c0.6,0.6,1.6,0.6,2.2,0c0.2-0.4,0.4-0.8,0.3-1.3v-4h2.2v4.1c0,1-0.3,1.9-1,2.6C55.7,15.6,54.7,15.9,53.8,15.8"/>
<path class="st0" d="M61.8,15.8c-0.6,0-1.2-0.1-1.8-0.4c-0.6-0.3-1.1-0.6-1.5-1.1l1.4-1.2c0.5,0.6,1.2,0.9,1.9,0.9
	c0.3,0,0.6,0,0.8-0.1c0.1-0.1,0.2-0.2,0.2-0.4c0-0.2-0.1-0.3-0.3-0.4c-0.4-0.2-0.8-0.3-1.2-0.4c-0.7-0.1-1.3-0.4-1.8-0.8
	c-0.4-0.4-0.7-1-0.6-1.6c0-0.6,0.2-1.3,0.7-1.7C60.3,8.2,61,8,61.7,8c0.5,0,1,0.1,1.5,0.3c0.4,0.2,0.8,0.4,1.2,0.8l-1.1,1.3
	c-0.2-0.2-0.4-0.3-0.7-0.4c-0.3-0.1-0.6-0.2-0.8-0.2c-0.2,0-0.4,0-0.6,0.1c-0.1,0.1-0.2,0.2-0.2,0.4c0,0.2,0.1,0.4,0.3,0.4
	c0.4,0.1,0.8,0.3,1.2,0.3c0.7,0.1,1.3,0.4,1.9,0.9c0.4,0.4,0.6,1,0.6,1.5c0,0.7-0.3,1.4-0.8,1.8C63.4,15.7,62.6,15.9,61.8,15.8"/>
<path class="st0" d="M66.2,8.2h2.2v7.4h-2.2V8.2z M67.3,6.2c-0.4,0-0.7-0.1-1-0.4c-0.3-0.3-0.4-0.6-0.4-1c0-0.4,0.1-0.7,0.4-1
	c0.5-0.5,1.4-0.5,1.9,0c0.3,0.3,0.4,0.6,0.4,1C68.6,5.5,68,6.2,67.3,6.2C67.3,6.2,67.2,6.2,67.3,6.2"/>
<path class="st0" d="M70.1,8.2h2.2v1c0.2-0.4,0.6-0.7,1-0.9C73.7,8.1,74.1,8,74.6,8c0.8,0,1.5,0.3,2,0.8c0.6,0.6,0.8,1.5,0.8,2.3
	v4.5h-2.1v-4.4c0-0.4-0.1-0.7-0.3-1c-0.3-0.3-0.6-0.4-1-0.4c-0.4,0-0.9,0.1-1.2,0.4c-0.3,0.3-0.5,0.8-0.4,1.2v4h-2.2V8.2z"/>
<path class="st0" d="M84.3,11.1c-0.1-0.4-0.2-0.7-0.5-0.9c-0.3-0.3-0.7-0.4-1.1-0.4c-0.4,0-0.8,0.1-1.1,0.3c-0.3,0.3-0.5,0.6-0.6,1
	L84.3,11.1z M81.6,13.6c0.4,0.3,0.8,0.4,1.3,0.4c0.4,0,0.8-0.1,1.2-0.2c0.3-0.1,0.5-0.3,0.8-0.5l1.3,1.3c-0.4,0.4-0.8,0.7-1.2,0.9
	c-0.6,0.3-1.3,0.4-1.9,0.4c-0.6,0-1.2-0.1-1.8-0.3c-0.5-0.2-0.9-0.5-1.3-0.8c-0.4-0.4-0.6-0.8-0.8-1.3c-0.2-0.5-0.3-1-0.3-1.6
	c0-1.1,0.4-2.1,1.1-2.8c0.4-0.4,0.8-0.6,1.3-0.8c0.5-0.2,1-0.3,1.6-0.3c0.6,0,1.2,0.1,1.7,0.4c0.5,0.2,0.9,0.6,1.2,1
	c0.3,0.4,0.6,0.9,0.7,1.5c0.2,0.6,0.2,1.2,0.2,1.8h-5.6C81,13.1,81.3,13.4,81.6,13.6"/>
<path class="st0" d="M90.7,15.8c-0.6,0-1.2-0.1-1.8-0.4c-0.6-0.3-1.1-0.6-1.5-1.1l1.4-1.2c0.5,0.6,1.2,0.9,1.9,0.9
	c0.3,0,0.6,0,0.8-0.1c0.1-0.1,0.2-0.2,0.2-0.4c0-0.2-0.1-0.3-0.3-0.4c-0.4-0.2-0.8-0.3-1.2-0.4c-0.7-0.1-1.3-0.4-1.8-0.8
	c-0.4-0.4-0.7-1-0.6-1.6c0-0.6,0.3-1.3,0.7-1.7c0.6-0.5,1.3-0.7,2-0.7c0.5,0,1,0.1,1.5,0.3c0.4,0.2,0.8,0.4,1.2,0.8l-1.1,1.3
	c-0.2-0.2-0.4-0.3-0.7-0.4c-0.3-0.1-0.6-0.2-0.8-0.2c-0.2,0-0.4,0-0.6,0.1c-0.2,0.1-0.3,0.4-0.1,0.6c0.1,0.1,0.1,0.1,0.2,0.2
	c0.4,0.1,0.8,0.3,1.2,0.3c0.7,0.1,1.3,0.4,1.9,0.9c0.4,0.4,0.6,1,0.6,1.5c0,0.7-0.3,1.4-0.8,1.8C92.3,15.7,91.5,15.9,90.7,15.8"/>
<path class="st0" d="M97.7,15.8c-0.6,0-1.2-0.1-1.8-0.4c-0.6-0.3-1.1-0.6-1.5-1.1l1.4-1.2c0.5,0.6,1.2,0.9,1.9,0.9
	c0.3,0,0.6,0,0.8-0.1c0.1-0.1,0.2-0.2,0.2-0.4c0-0.2-0.1-0.3-0.3-0.4c-0.4-0.2-0.8-0.3-1.2-0.4c-0.7-0.1-1.3-0.4-1.8-0.8
	c-0.4-0.4-0.7-1-0.6-1.6c0-0.6,0.2-1.3,0.7-1.7c0.6-0.5,1.3-0.7,2-0.6c0.5,0,1,0.1,1.5,0.3c0.4,0.2,0.8,0.4,1.2,0.8l-1.1,1.3
	c-0.2-0.2-0.4-0.3-0.7-0.4c-0.3-0.1-0.6-0.2-0.8-0.2c-0.2,0-0.4,0-0.6,0.1c-0.1,0.1-0.2,0.2-0.2,0.4c0,0.2,0.1,0.4,0.3,0.4
	c0.4,0.1,0.8,0.3,1.2,0.3c0.7,0.1,1.3,0.4,1.9,0.9c0.4,0.4,0.6,1,0.6,1.5c0,0.7-0.3,1.4-0.8,1.8C99.4,15.7,98.5,15.9,97.7,15.8"/>
<path class="st0" d="M103.5,15.8c-0.4,0-0.8-0.1-1.1-0.4c-0.6-0.6-0.6-1.6,0-2.2c0.6-0.6,1.5-0.6,2.1,0c0.6,0.6,0.6,1.6,0,2.2
	C104.3,15.6,103.9,15.8,103.5,15.8"/>
<path class="st0" d="M112.1,6.1c-0.4,0-0.7-0.1-1-0.4c-0.3-0.3-0.4-0.6-0.4-1c0-0.4,0.1-0.7,0.4-1c0.3-0.3,0.6-0.4,1-0.4
	c0.7,0,1.4,0.6,1.4,1.3c0,0,0,0,0,0C113.5,5.5,112.9,6.1,112.1,6.1C112.2,6.1,112.1,6.1,112.1,6.1 M108.8,15.6h-2.2V10h-0.9V8.2h0.9
	V2.8c-0.1-0.8,0.2-1.5,0.7-2.1c0.5-0.5,1.1-0.7,1.8-0.7c0.4,0,0.9,0.1,1.3,0.2c0.3,0.1,0.6,0.4,0.8,0.6L110,2.2
	c-0.2-0.2-0.4-0.3-0.7-0.3c-0.1,0-0.3,0.1-0.4,0.2c-0.1,0.2-0.2,0.4-0.2,0.7v5.4h4.4v7.4H111V10h-2.2L108.8,15.6z"/>
<polygon class="st0" points="0,25.1 0,21.7 0.7,21.7 0.7,23.1 1.2,23.1 1.2,21.7 1.9,21.7 1.9,25.1 1.2,25.1 1.2,23.6 0.7,23.6 
	0.7,25.1 "/>
<polygon class="st0" points="2.8,25.1 2.8,21.7 4.2,21.7 4.2,22.3 3.5,22.3 3.5,23.1 4.2,23.1 4.2,23.6 3.5,23.6 3.5,24.6 4.2,24.6 
	4.2,25.1 "/>
<polygon class="st0" points="5.1,25.1 5.1,21.7 5.8,21.7 5.8,24.6 6.6,24.6 6.6,25.1 "/>
<path class="st0" d="M7.2,24.4l0.6-0.1c0.1,0.3,0.2,0.4,0.4,0.4c0.1,0,0.2,0,0.2-0.1c0.1-0.1,0.1-0.2,0.1-0.2c0-0.1,0-0.2-0.1-0.2
	c-0.1-0.1-0.2-0.2-0.3-0.3l-0.3-0.3c-0.1-0.1-0.2-0.2-0.3-0.4c-0.1-0.2-0.2-0.4-0.2-0.6c0-0.5,0.3-0.9,0.8-0.9c0,0,0.1,0,0.1,0
	c0.2,0,0.4,0.1,0.6,0.2C9,22,9.2,22.2,9.2,22.4l-0.6,0.2c0-0.3-0.1-0.5-0.3-0.5c-0.1,0-0.2,0-0.2,0.1C8,22.3,8,22.4,8,22.5
	c0,0.1,0,0.2,0.1,0.2c0.1,0.1,0.2,0.2,0.3,0.3l0.3,0.3c0.2,0.1,0.3,0.3,0.4,0.5c0.2,0.4,0.1,0.9-0.2,1.2c-0.2,0.2-0.5,0.3-0.7,0.3
	c-0.2,0-0.5-0.1-0.6-0.3C7.4,24.8,7.3,24.6,7.2,24.4"/>
<rect x="10" y="21.7" class="st0" width="0.7" height="3.5"/>
<polygon class="st0" points="11.6,25.1 11.6,21.7 12.3,21.7 12.9,23.8 12.9,21.7 13.5,21.7 13.5,25.1 12.8,25.1 12.2,23.2 
	12.2,25.1 "/>
<polygon class="st0" points="14.5,25.1 14.5,21.7 15.1,21.7 15.1,23.2 15.8,21.7 16.5,21.7 15.8,23.3 16.5,25.1 15.7,25.1 
	15.1,23.4 15.1,25.1 "/>
<rect x="17.2" y="21.7" class="st0" width="0.7" height="3.5"/>
<path class="st0" d="M20.4,24.8c0-0.2,0.2-0.4,0.4-0.4l0,0c0.2,0,0.3,0.1,0.4,0.3c0,0,0,0,0,0c0,0.1,0,0.2-0.1,0.2
	c-0.1,0.1-0.2,0.1-0.2,0.1c-0.1,0-0.2,0-0.2-0.1C20.5,25,20.4,24.9,20.4,24.8"/>
<polygon class="st0" points="23.6,25.1 23.6,21.7 25,21.7 25,22.3 24.3,22.3 24.3,23.1 25,23.1 25,23.6 24.3,23.6 24.3,24.6 
	25,24.6 25,25.1 "/>
<path class="st0" d="M25.7,24.4l0.6-0.1c0,0.3,0.2,0.4,0.4,0.4c0.1,0,0.2,0,0.2-0.1c0.1-0.1,0.1-0.2,0.1-0.2c0-0.1,0-0.2-0.1-0.2
	c-0.1-0.1-0.2-0.2-0.3-0.3l-0.3-0.3c-0.1-0.1-0.2-0.2-0.3-0.4c-0.1-0.2-0.2-0.4-0.2-0.6c0-0.5,0.3-0.9,0.8-0.9c0,0,0.1,0,0.1,0
	c0.2,0,0.4,0.1,0.6,0.2c0.2,0.2,0.3,0.4,0.3,0.6l-0.6,0.2c0-0.3-0.1-0.5-0.3-0.5c-0.1,0-0.2,0-0.2,0.1c-0.1,0.1-0.1,0.1-0.1,0.2
	c0,0.1,0,0.2,0.1,0.2c0.1,0.1,0.2,0.2,0.3,0.3l0.3,0.3c0.2,0.1,0.3,0.3,0.4,0.5c0.2,0.4,0.2,0.9-0.2,1.2c-0.2,0.2-0.5,0.3-0.7,0.3
	c-0.3,0-0.5-0.1-0.7-0.3C25.8,24.8,25.7,24.6,25.7,24.4"/>
<path class="st0" d="M29.1,23.5c0.1,0,0.3,0,0.3-0.1c0.1-0.1,0.1-0.3,0.1-0.5c0-0.2,0-0.3-0.1-0.5c-0.1-0.1-0.2-0.2-0.3-0.1l0,0
	L29.1,23.5z M28.5,25.1v-3.4h0.7c0.3,0,0.6,0.1,0.8,0.3c0.2,0.3,0.3,0.6,0.3,0.9c0,0.3-0.1,0.6-0.3,0.9c-0.2,0.2-0.5,0.3-0.8,0.3
	h-0.1v1.1L28.5,25.1z"/>
<path class="st0" d="M31.6,23.4c0,0.2,0,0.5,0,0.7c0,0.1,0,0.3,0.1,0.4c0,0.1,0.1,0.1,0.2,0.1c0.1,0,0.2,0,0.2-0.1
	c0.1-0.1,0.1-0.2,0.1-0.4c0-0.2,0-0.5,0-0.7c0-0.3,0-0.5,0-0.8c0-0.1,0-0.3-0.1-0.4c-0.1-0.1-0.2-0.1-0.3-0.1c0,0-0.1,0-0.1,0.1
	c-0.1,0.1-0.1,0.2-0.1,0.4C31.6,22.9,31.6,23.2,31.6,23.4 M30.9,23.4c0-0.3,0-0.6,0.1-0.9c0-0.2,0.1-0.4,0.2-0.6
	c0.3-0.4,0.9-0.4,1.3-0.1c0,0,0.1,0.1,0.1,0.1c0.1,0.2,0.2,0.4,0.2,0.6c0.1,0.3,0.1,0.6,0.1,0.9c0,0.3,0,0.6-0.1,0.9
	c0,0.2-0.1,0.4-0.2,0.6c-0.1,0.1-0.2,0.2-0.3,0.2c-0.1,0.1-0.3,0.1-0.4,0.1c-0.1,0-0.3,0-0.4-0.1c-0.1-0.1-0.2-0.1-0.3-0.2
	c-0.1-0.2-0.2-0.4-0.2-0.6C31,24,30.9,23.7,30.9,23.4"/>
<path class="st0" d="M34.4,23.4c0,0.2,0,0.5,0,0.7c0,0.1,0,0.3,0.1,0.4c0,0.1,0.1,0.1,0.2,0.1c0.1,0,0.2,0,0.2-0.1
	c0.1-0.1,0.1-0.2,0.1-0.4c0-0.2,0-0.5,0-0.7c0-0.3,0-0.5,0-0.8c0-0.1,0-0.3-0.1-0.4c0-0.1-0.1-0.1-0.2-0.1c-0.1,0-0.2,0-0.2,0.1
	c-0.1,0.1-0.1,0.2-0.1,0.4C34.4,22.9,34.4,23.2,34.4,23.4 M33.7,23.4c0-0.3,0-0.6,0.1-0.9c0-0.2,0.1-0.4,0.2-0.6
	c0.3-0.4,0.9-0.4,1.3-0.1c0,0,0.1,0.1,0.1,0.1c0.1,0.2,0.2,0.4,0.2,0.6c0.1,0.3,0.1,0.6,0.1,0.9c0,0.3,0,0.6-0.1,0.9
	c0,0.2-0.1,0.4-0.2,0.6c-0.1,0.1-0.2,0.2-0.3,0.2c-0.1,0.1-0.3,0.1-0.4,0.1c-0.1,0-0.3,0-0.4-0.1c-0.1-0.1-0.2-0.1-0.3-0.2
	c-0.1-0.2-0.2-0.4-0.2-0.6C33.7,24,33.7,23.7,33.7,23.4"/>
<path class="st0" d="M38.2,24.8c0-0.2,0.2-0.4,0.3-0.4c0.2,0,0.3,0.1,0.3,0.3c0,0,0,0,0,0c0,0.1,0,0.2-0.1,0.2
	c-0.1,0.1-0.2,0.1-0.2,0.1c-0.1,0-0.2,0-0.2-0.1C38.2,25,38.2,24.9,38.2,24.8"/>
<polygon class="st0" points="41.2,21.7 41.9,21.7 42.2,24.1 42.5,21.7 43.2,21.7 42.5,25.1 41.8,25.1 "/>
<path class="st0" d="M44.6,24.1h0.5l-0.2-1.6L44.6,24.1z M43.7,25.1l0.8-3.5h0.7l0.8,3.5h-0.7l-0.1-0.5h-0.7l-0.1,0.5H43.7z"/>
<polygon class="st0" points="46.7,25.1 46.7,21.7 47.4,21.7 48,23.8 48,21.7 48.6,21.7 48.6,25.1 47.9,25.1 47.3,23.2 47.3,25.1 "/>
<polygon class="st0" points="49.4,22.3 49.4,21.7 51.1,21.7 51.1,22.3 50.6,22.3 50.6,25.1 49.9,25.1 49.9,22.3 "/>
<path class="st0" d="M52.5,24.1h0.5l-0.2-1.6L52.5,24.1z M51.7,25.1l0.8-3.5h0.7l0.8,3.5h-0.7l-0.1-0.5h-0.7l-0.1,0.5L51.7,25.1z"/>
<path class="st0" d="M55.3,24.1h0.5l-0.2-1.6L55.3,24.1z M54.5,25.1l0.8-3.5H56l0.8,3.5H56l-0.1-0.5h-0.7l-0.1,0.5L54.5,25.1z"/>
<path class="st0" d="M59,24.8c0-0.2,0.2-0.4,0.3-0.4c0.2,0,0.3,0.1,0.3,0.3c0,0,0,0,0,0c0,0.1,0,0.2-0.1,0.2
	c-0.1,0.1-0.2,0.1-0.2,0.1c-0.1,0-0.2,0-0.2-0.1C59,25,59,24.9,59,24.8"/>
<polygon class="st0" points="62,22.3 62,21.7 63.8,21.7 63.8,22.3 63.2,22.3 63.2,25.1 62.6,25.1 62.6,22.3 "/>
<path class="st0" d="M65.2,24.1h0.5l-0.2-1.6L65.2,24.1z M64.3,25.1l0.8-3.5h0.7l0.8,3.5h-0.7l-0.1-0.5h-0.7L65,25.1L64.3,25.1z"/>
<polygon class="st0" points="67.3,25.1 67.3,21.7 68.1,21.7 68.6,23.9 69.2,21.7 69.9,21.7 69.9,25.1 69.3,25.1 69.3,23 68.9,24.7 
	68.4,24.7 67.9,23 67.9,25.1 "/>
<path class="st0" d="M71.5,23.5c0.1,0,0.3,0,0.3-0.1c0.1-0.1,0.1-0.3,0.1-0.5c0-0.2,0-0.3-0.1-0.5c-0.1-0.1-0.2-0.2-0.3-0.1l0,0
	L71.5,23.5z M70.8,25.1v-3.4h0.7c0.3,0,0.6,0.1,0.8,0.3c0.2,0.3,0.3,0.6,0.3,0.9c0,0.3-0.1,0.6-0.3,0.9c-0.2,0.2-0.5,0.3-0.8,0.3
	h-0.1v1.1L70.8,25.1z"/>
<polygon class="st0" points="73.4,25.1 73.4,21.7 74.9,21.7 74.9,22.3 74.1,22.3 74.1,23.1 74.9,23.1 74.9,23.6 74.1,23.6 
	74.1,24.6 74.9,24.6 74.9,25.1 "/>
<path class="st0" d="M76.4,23.2h0.1c0.2,0,0.4-0.1,0.5-0.4c0,0,0-0.1,0-0.1c0-0.2-0.1-0.4-0.3-0.5c0,0-0.1,0-0.1,0h-0.1V23.2z
	 M75.8,25.2v-3.5h0.8c0.3,0,0.6,0.1,0.8,0.2c0.2,0.2,0.3,0.5,0.3,0.8c0,0.2,0,0.4-0.2,0.6c-0.1,0.2-0.2,0.3-0.4,0.3l0.6,1.6H77
	l-0.6-1.6v1.6L75.8,25.2z"/>
<polygon class="st0" points="78.6,25.1 78.6,21.7 80,21.7 80,22.3 79.2,22.3 79.2,23.1 80,23.1 80,23.6 79.2,23.6 79.2,24.6 
	80,24.6 80,25.1 "/>
<path class="st0" d="M82.4,24.8c0-0.2,0.2-0.4,0.3-0.4c0.2,0,0.3,0.1,0.3,0.3c0,0,0,0,0,0c0,0.1,0,0.2-0.1,0.2
	c-0.1,0.1-0.2,0.1-0.2,0.1c-0.1,0-0.2,0-0.2-0.1C82.5,25,82.4,24.9,82.4,24.8"/>
<polygon class="st0" points="85.5,22.3 85.5,21.7 87.2,21.7 87.2,22.3 86.7,22.3 86.7,25.1 86,25.1 86,22.3 "/>
<path class="st0" d="M87.9,24.2v-2.5h0.7v2.5c0,0.1,0,0.2,0,0.3c0,0.1,0.1,0.1,0.2,0.1c0,0,0.1,0,0.1,0c0,0,0.1-0.1,0.1-0.1
	c0-0.1,0-0.2,0-0.3v-2.5h0.7v2.5c0,0.2,0,0.3-0.1,0.5c0,0.1-0.1,0.2-0.2,0.3c-0.2,0.2-0.4,0.3-0.7,0.3c-0.3,0-0.5-0.1-0.7-0.3
	c-0.1-0.1-0.1-0.2-0.2-0.3C87.9,24.5,87.9,24.3,87.9,24.2"/>
<path class="st0" d="M91.4,23.2h0.1c0.2,0,0.4-0.1,0.5-0.4c0,0,0-0.1,0-0.1c0-0.2-0.1-0.4-0.3-0.5c0,0-0.1,0-0.1,0h-0.1V23.2z
	 M90.7,25.2v-3.5h0.8c0.3,0,0.6,0.1,0.8,0.2c0.2,0.2,0.3,0.5,0.3,0.8c0,0.2,0,0.4-0.2,0.6c-0.1,0.2-0.2,0.3-0.4,0.3l0.6,1.6H92
	l-0.6-1.6v1.6L90.7,25.2z"/>
<polygon class="st0" points="93.6,25.1 93.6,21.7 94.2,21.7 94.2,23.2 94.9,21.7 95.6,21.7 94.9,23.3 95.6,25.1 94.8,25.1 
	94.2,23.4 94.2,25.1 "/>
<path class="st0" d="M96.3,24.2v-2.5H97v2.5c0,0.1,0,0.2,0,0.3c0,0.1,0.1,0.1,0.2,0.1c0,0,0.1,0,0.1,0c0,0,0.1-0.1,0.1-0.1
	c0-0.1,0-0.2,0-0.3v-2.5h0.7v2.5c0,0.2,0,0.3-0.1,0.5c0,0.1-0.1,0.2-0.2,0.3c-0.2,0.2-0.4,0.3-0.7,0.3c-0.3,0-0.5-0.1-0.7-0.3
	c-0.1-0.1-0.1-0.2-0.2-0.3C96.3,24.5,96.3,24.3,96.3,24.2"/>
<path class="st0" d="M100.7,24.8c0-0.2,0.2-0.4,0.3-0.4c0.2,0,0.3,0.1,0.3,0.3c0,0,0,0,0,0c0,0.1,0,0.2-0.1,0.2
	c-0.1,0.1-0.2,0.1-0.2,0.1c-0.1,0-0.2,0-0.2-0.1C100.7,25,100.7,24.9,100.7,24.8"/>
<path class="st0" d="M104.4,23.4c0,0.2,0,0.5,0,0.7c0,0.1,0,0.3,0.1,0.4c0,0.1,0.1,0.1,0.2,0.1c0.1,0,0.2,0,0.2-0.1
	c0.1-0.1,0.1-0.2,0.1-0.4c0-0.2,0-0.5,0-0.7c0-0.3,0-0.5,0-0.8c0-0.1,0-0.3-0.1-0.4c0-0.1-0.1-0.1-0.2-0.1c-0.1,0-0.2,0-0.2,0.1
	c-0.1,0.1-0.1,0.2-0.1,0.4C104.4,22.9,104.4,23.2,104.4,23.4 M103.8,23.4c0-0.3,0-0.6,0.1-0.9c0-0.2,0.1-0.4,0.2-0.6
	c0.3-0.4,0.9-0.4,1.3-0.1c0,0,0.1,0.1,0.1,0.1c0.1,0.2,0.2,0.4,0.3,0.6c0.1,0.3,0.1,0.6,0.1,0.9c0,0.3,0,0.6-0.1,0.9
	c0,0.2-0.1,0.4-0.2,0.6c-0.1,0.1-0.2,0.2-0.3,0.2c-0.1,0.1-0.3,0.1-0.4,0.1c-0.1,0-0.3,0-0.4-0.1c-0.1-0.1-0.2-0.1-0.3-0.2
	c-0.1-0.2-0.2-0.4-0.2-0.6C103.8,24,103.8,23.7,103.8,23.4"/>
<path class="st0" d="M106.7,24.2v-2.5h0.7v2.5c0,0.1,0,0.2,0,0.3c0,0.1,0.1,0.1,0.2,0.1c0,0,0.1,0,0.1,0c0,0,0.1-0.1,0.1-0.1
	c0-0.1,0-0.2,0-0.3v-2.5h0.7v2.5c0,0.2,0,0.3-0.1,0.5c0,0.1-0.1,0.2-0.2,0.3c-0.2,0.2-0.4,0.3-0.7,0.3c-0.3,0-0.5-0.1-0.7-0.3
	c-0.1-0.1-0.1-0.2-0.2-0.3C106.6,24.5,106.6,24.3,106.7,24.2"/>
<polygon class="st0" points="109.5,25.1 109.5,21.7 110.1,21.7 110.1,24.6 110.9,24.6 110.9,25.1 "/>
<path class="st0" d="M111.8,24.2v-2.5h0.7v2.5c0,0.1,0,0.2,0,0.3c0,0.1,0.1,0.1,0.2,0.1c0,0,0.1,0,0.1,0c0,0,0.1-0.1,0.1-0.1
	c0-0.1,0-0.2,0-0.3v-2.5h0.7v2.5c0,0.2,0,0.3-0.1,0.5c0,0.1-0.1,0.2-0.2,0.3c-0.2,0.2-0.4,0.3-0.7,0.3c-0.3,0-0.5-0.1-0.7-0.3
	c-0.1-0.1-0.1-0.2-0.2-0.3C111.7,24.5,111.7,24.3,111.8,24.2"/>
</svg>
